<svg width="266" height="42" viewBox="0 0 266 42" fill="none" xmlns="http://www.w3.org/2000/svg">
<path fill-rule="evenodd" clip-rule="evenodd" d="M56 19.5938L44.6875 0L38.03 11.5312L33.2578 3.26563L26.2131 15.4674L20.7396 5.98699L0 41.909H41.4791L36.6085 33.4727H50.6979L42.6849 19.5938H56Z" fill="#00D1FF"/>
<path d="M69.31 11.6H75.8C77.428 11.6 78.8727 11.9227 80.134 12.568C81.3953 13.2133 82.3707 14.1227 83.06 15.296C83.764 16.4547 84.116 17.7893 84.116 19.3C84.116 20.8107 83.764 22.1527 83.06 23.326C82.3707 24.4847 81.3953 25.3867 80.134 26.032C78.8727 26.6773 77.428 27 75.8 27H69.31V11.6ZM75.668 25.086C76.9147 25.086 78.0073 24.844 78.946 24.36C79.8993 23.876 80.6327 23.2013 81.146 22.336C81.6593 21.456 81.916 20.444 81.916 19.3C81.916 18.156 81.6593 17.1513 81.146 16.286C80.6327 15.406 79.8993 14.724 78.946 14.24C78.0073 13.756 76.9147 13.514 75.668 13.514H71.51V25.086H75.668ZM94.4378 27.176C92.8831 27.176 91.4824 26.8387 90.2358 26.164C88.9891 25.4747 88.0064 24.5287 87.2878 23.326C86.5838 22.1233 86.2318 20.7813 86.2318 19.3C86.2318 17.8187 86.5838 16.4767 87.2878 15.274C88.0064 14.0713 88.9891 13.1327 90.2358 12.458C91.4824 11.7687 92.8831 11.424 94.4378 11.424C95.9778 11.424 97.3711 11.7687 98.6178 12.458C99.8644 13.1327 100.84 14.0713 101.544 15.274C102.248 16.462 102.6 17.804 102.6 19.3C102.6 20.796 102.248 22.1453 101.544 23.348C100.84 24.536 99.8644 25.4747 98.6178 26.164C97.3711 26.8387 95.9778 27.176 94.4378 27.176ZM94.4378 25.218C95.5671 25.218 96.5791 24.9613 97.4738 24.448C98.3831 23.9347 99.0944 23.2307 99.6078 22.336C100.136 21.4267 100.4 20.4147 100.4 19.3C100.4 18.1853 100.136 17.1807 99.6078 16.286C99.0944 15.3767 98.3831 14.6653 97.4738 14.152C96.5791 13.6387 95.5671 13.382 94.4378 13.382C93.3084 13.382 92.2818 13.6387 91.3578 14.152C90.4484 14.6653 89.7298 15.3767 89.2018 16.286C88.6884 17.1807 88.4318 18.1853 88.4318 19.3C88.4318 20.4147 88.6884 21.4267 89.2018 22.336C89.7298 23.2307 90.4484 23.9347 91.3578 24.448C92.2818 24.9613 93.3084 25.218 94.4378 25.218ZM112.342 27.176C110.289 27.176 108.69 26.5893 107.546 25.416C106.402 24.2427 105.83 22.556 105.83 20.356V11.6H108.03V20.268C108.03 23.568 109.475 25.218 112.364 25.218C113.772 25.218 114.85 24.8147 115.598 24.008C116.346 23.1867 116.72 21.94 116.72 20.268V11.6H118.854V20.356C118.854 22.5707 118.282 24.2647 117.138 25.438C115.994 26.5967 114.396 27.176 112.342 27.176ZM134.035 19.212H136.147V25.218C135.384 25.8487 134.497 26.3327 133.485 26.67C132.473 27.0073 131.417 27.176 130.317 27.176C128.762 27.176 127.361 26.8387 126.115 26.164C124.868 25.4747 123.885 24.536 123.167 23.348C122.463 22.1453 122.111 20.796 122.111 19.3C122.111 17.804 122.463 16.4547 123.167 15.252C123.885 14.0493 124.868 13.1107 126.115 12.436C127.376 11.7613 128.791 11.424 130.361 11.424C131.593 11.424 132.707 11.6293 133.705 12.04C134.717 12.436 135.575 13.0227 136.279 13.8L134.915 15.164C133.683 13.976 132.194 13.382 130.449 13.382C129.275 13.382 128.219 13.6387 127.281 14.152C126.357 14.6507 125.631 15.3547 125.103 16.264C124.575 17.1587 124.311 18.1707 124.311 19.3C124.311 20.4147 124.575 21.4267 125.103 22.336C125.631 23.2307 126.357 23.9347 127.281 24.448C128.219 24.9613 129.268 25.218 130.427 25.218C131.805 25.218 133.008 24.888 134.035 24.228V19.212ZM140.359 11.6H142.559V25.086H150.897V27H140.359V11.6ZM163.298 23.15H155.114L153.42 27H151.154L158.128 11.6H160.306L167.302 27H164.992L163.298 23.15ZM162.528 21.39L159.206 13.844L155.884 21.39H162.528ZM174.087 27.176C172.928 27.176 171.806 27 170.721 26.648C169.65 26.2813 168.807 25.812 168.191 25.24L169.005 23.524C169.592 24.052 170.34 24.4847 171.249 24.822C172.173 25.1447 173.119 25.306 174.087 25.306C175.363 25.306 176.316 25.0933 176.947 24.668C177.578 24.228 177.893 23.6487 177.893 22.93C177.893 22.402 177.717 21.9767 177.365 21.654C177.028 21.3167 176.602 21.06 176.089 20.884C175.59 20.708 174.879 20.51 173.955 20.29C172.796 20.0113 171.858 19.7327 171.139 19.454C170.435 19.1753 169.826 18.75 169.313 18.178C168.814 17.5913 168.565 16.8067 168.565 15.824C168.565 15.0027 168.778 14.262 169.203 13.602C169.643 12.942 170.303 12.414 171.183 12.018C172.063 11.622 173.156 11.424 174.461 11.424C175.37 11.424 176.265 11.5413 177.145 11.776C178.025 12.0107 178.78 12.348 179.411 12.788L178.685 14.548C178.04 14.1373 177.35 13.8293 176.617 13.624C175.884 13.404 175.165 13.294 174.461 13.294C173.214 13.294 172.276 13.5213 171.645 13.976C171.029 14.4307 170.721 15.0173 170.721 15.736C170.721 16.264 170.897 16.6967 171.249 17.034C171.601 17.3567 172.034 17.6133 172.547 17.804C173.075 17.98 173.786 18.1707 174.681 18.376C175.84 18.6547 176.771 18.9333 177.475 19.212C178.179 19.4907 178.78 19.916 179.279 20.488C179.792 21.06 180.049 21.83 180.049 22.798C180.049 23.6047 179.829 24.3453 179.389 25.02C178.949 25.68 178.282 26.208 177.387 26.604C176.492 26.9853 175.392 27.176 174.087 27.176ZM196.057 27.176C194.517 27.176 193.124 26.8387 191.877 26.164C190.645 25.4747 189.677 24.536 188.973 23.348C188.269 22.1453 187.917 20.796 187.917 19.3C187.917 17.804 188.269 16.462 188.973 15.274C189.677 14.0713 190.653 13.1327 191.899 12.458C193.146 11.7687 194.539 11.424 196.079 11.424C197.282 11.424 198.382 11.6293 199.379 12.04C200.377 12.436 201.227 13.03 201.931 13.822L200.501 15.208C199.343 13.9907 197.898 13.382 196.167 13.382C195.023 13.382 193.989 13.6387 193.065 14.152C192.141 14.6653 191.415 15.3767 190.887 16.286C190.374 17.1807 190.117 18.1853 190.117 19.3C190.117 20.4147 190.374 21.4267 190.887 22.336C191.415 23.2307 192.141 23.9347 193.065 24.448C193.989 24.9613 195.023 25.218 196.167 25.218C197.883 25.218 199.328 24.602 200.501 23.37L201.931 24.756C201.227 25.548 200.369 26.1493 199.357 26.56C198.36 26.9707 197.26 27.176 196.057 27.176ZM211.7 27.176C210.145 27.176 208.744 26.8387 207.498 26.164C206.251 25.4747 205.268 24.5287 204.55 23.326C203.846 22.1233 203.494 20.7813 203.494 19.3C203.494 17.8187 203.846 16.4767 204.55 15.274C205.268 14.0713 206.251 13.1327 207.498 12.458C208.744 11.7687 210.145 11.424 211.7 11.424C213.24 11.424 214.633 11.7687 215.88 12.458C217.126 13.1327 218.102 14.0713 218.806 15.274C219.51 16.462 219.862 17.804 219.862 19.3C219.862 20.796 219.51 22.1453 218.806 23.348C218.102 24.536 217.126 25.4747 215.88 26.164C214.633 26.8387 213.24 27.176 211.7 27.176ZM211.7 25.218C212.829 25.218 213.841 24.9613 214.736 24.448C215.645 23.9347 216.356 23.2307 216.87 22.336C217.398 21.4267 217.662 20.4147 217.662 19.3C217.662 18.1853 217.398 17.1807 216.87 16.286C216.356 15.3767 215.645 14.6653 214.736 14.152C213.841 13.6387 212.829 13.382 211.7 13.382C210.57 13.382 209.544 13.6387 208.62 14.152C207.71 14.6653 206.992 15.3767 206.464 16.286C205.95 17.1807 205.694 18.1853 205.694 19.3C205.694 20.4147 205.95 21.4267 206.464 22.336C206.992 23.2307 207.71 23.9347 208.62 24.448C209.544 24.9613 210.57 25.218 211.7 25.218ZM227.712 27.176C226.553 27.176 225.431 27 224.346 26.648C223.275 26.2813 222.432 25.812 221.816 25.24L222.63 23.524C223.217 24.052 223.965 24.4847 224.874 24.822C225.798 25.1447 226.744 25.306 227.712 25.306C228.988 25.306 229.941 25.0933 230.572 24.668C231.203 24.228 231.518 23.6487 231.518 22.93C231.518 22.402 231.342 21.9767 230.99 21.654C230.653 21.3167 230.227 21.06 229.714 20.884C229.215 20.708 228.504 20.51 227.58 20.29C226.421 20.0113 225.483 19.7327 224.764 19.454C224.06 19.1753 223.451 18.75 222.938 18.178C222.439 17.5913 222.19 16.8067 222.19 15.824C222.19 15.0027 222.403 14.262 222.828 13.602C223.268 12.942 223.928 12.414 224.808 12.018C225.688 11.622 226.781 11.424 228.086 11.424C228.995 11.424 229.89 11.5413 230.77 11.776C231.65 12.0107 232.405 12.348 233.036 12.788L232.31 14.548C231.665 14.1373 230.975 13.8293 230.242 13.624C229.509 13.404 228.79 13.294 228.086 13.294C226.839 13.294 225.901 13.5213 225.27 13.976C224.654 14.4307 224.346 15.0173 224.346 15.736C224.346 16.264 224.522 16.6967 224.874 17.034C225.226 17.3567 225.659 17.6133 226.172 17.804C226.7 17.98 227.411 18.1707 228.306 18.376C229.465 18.6547 230.396 18.9333 231.1 19.212C231.804 19.4907 232.405 19.916 232.904 20.488C233.417 21.06 233.674 21.83 233.674 22.798C233.674 23.6047 233.454 24.3453 233.014 25.02C232.574 25.68 231.907 26.208 231.012 26.604C230.117 26.9853 229.017 27.176 227.712 27.176ZM239.731 13.514H234.451V11.6H247.189V13.514H241.909V27H239.731V13.514ZM258.624 23.15H250.44L248.746 27H246.48L253.454 11.6H255.632L262.628 27H260.318L258.624 23.15ZM257.854 21.39L254.532 13.844L251.21 21.39H257.854Z" fill="white"/>
</svg>
